<?xml version="1.0" encoding="UTF-8"?>
<svg width="86px" height="78px" viewBox="0 0 86 78" version="1.1" xmlns="http://www.w3.org/2000/svg" xmlns:xlink="http://www.w3.org/1999/xlink">
    <!-- Generator: Sketch 49.1 (51147) - http://www.bohemiancoding.com/sketch -->
    <title>download</title>
    <desc>Created with Sketch.</desc>
    <defs></defs>
    <g id="Page-1" stroke="none" stroke-width="1" fill="none" fill-rule="evenodd">
        <g id="download" transform="translate(1.000000, 1.000000)" fill="#2EB457" fill-rule="nonzero" stroke="#2EB457">
            <path d="M41.99998,61.99972 C41.53718,61.99972 40.92268,61.71982 40.62448,61.43582 L23.62418,45.43612 C22.85188,44.68912 22.76238,43.47892 23.54618,42.60802 C24.24688,41.82942 25.61348,41.81002 26.37438,42.53002 L39.99958,55.37352 L39.99958,2.00009 C39.99958,0.89549 40.89498,9.00000001e-05 41.99958,9.00000001e-05 C43.10418,9.00000001e-05 43.99968,0.89549 43.99968,2.00009 L43.99968,55.37352 L57.62488,42.53002 C58.38568,41.81012 59.71868,41.86122 60.45298,42.60802 C61.22818,43.39652 61.15918,44.70052 60.37498,45.43612 L43.37478,61.43582 C42.91368,61.90592 42.46958,61.99182 41.99998,61.99972 Z" id="Shape"></path>
            <path d="M0,33.99997 L0,74.00002 C0.0001,75.04712 0.95283,75.99992 2,76.00002 L82,76.00002 C83.04717,75.99992 83.9999,75.04712 84,74.00002 L84,33.99997 C83.9999,32.9528 83.04717,32.00007 82,31.99997 L68.04273,31.99997 C66.9861,31.98507 66.01425,32.94324 66.01425,33.99997 C66.01425,35.0567 66.9861,36.01492 68.04273,36.00002 L80,36.00002 L80,72.00002 L4,72.00002 L4,36.00002 L15.95727,36.00002 C17.0139,36.01502 17.98575,35.0567 17.98575,33.99997 C17.98575,32.94324 17.0139,31.98503 15.95727,31.99997 L2,31.99997 C0.9061,32.00297 0.00114,33.06393 0,33.99997 Z" id="Shape"></path>
        </g>
    </g>
</svg>