<?xml version="1.0" encoding="UTF-8"?>
<svg width="90px" height="90px" viewBox="0 0 90 90" version="1.1" xmlns="http://www.w3.org/2000/svg" xmlns:xlink="http://www.w3.org/1999/xlink">
    <!-- Generator: Sketch 49.1 (51147) - http://www.bohemiancoding.com/sketch -->
    <title>infoIcon</title>
    <desc>Created with Sketch.</desc>
    <defs></defs>
    <g id="Page-1" stroke="none" stroke-width="1" fill="none" fill-rule="evenodd">
        <g id="infoIcon" fill="#FFFFFF" fill-rule="nonzero">
            <path d="M45,-2e-05 C20.1827,-2e-05 2.00000002e-07,20.18285 2.00000002e-07,45.00002 C2.00000002e-07,69.81722 20.1827,90.00002 45,90.00002 C69.8173,90.00002 90,69.81722 90,45.00002 C90,20.18285 69.8173,-2e-05 45,-2e-05 Z M45,5.99998 C66.5746,5.99998 84,23.42551 84,45.00002 C84,66.57462 66.5746,84.00002 45,84.00002 C23.4254,84.00002 6,66.57462 6,45.00002 C6,23.42551 23.4254,5.99998 45,5.99998 Z M52,13.99998 C49.2385,13.99998 47,16.23858 47,18.99998 C47,21.76138 49.2385,23.99998 52,23.99998 C54.7614,23.99998 57,21.76138 57,18.99998 C57,16.23858 54.7614,13.99998 52,13.99998 Z M45.9062,24.99998 C42.3012,25.16183 38.4678,26.93774 35.25,29.40623 L34.9062,33.15623 C37.9464,31.96567 41.0659,31.97812 42,34.81248 C44.2745,41.70717 36.5032,53.77262 34.375,60.09372 C28.6015,77.24302 42.457,79.22442 52.3438,72.15622 L52.7188,68.09372 C47.3398,69.77812 43.4843,67.70922 46.5938,58.75002 C48.0919,54.42842 60.6289,32.65267 51.9688,26.65623 C50.1554,25.40043 48.0693,24.90287 45.9062,24.99998 Z" id="Shape"></path>
        </g>
    </g>
</svg>