<?xml version="1.0" encoding="UTF-8"?>
<svg width="78px" height="97px" viewBox="0 0 78 97" version="1.1" xmlns="http://www.w3.org/2000/svg" xmlns:xlink="http://www.w3.org/1999/xlink">
    <!-- Generator: Sketch 49.1 (51147) - http://www.bohemiancoding.com/sketch -->
    <title>pdfIcon</title>
    <desc>Created with Sketch.</desc>
    <defs></defs>
    <g id="Page-1" stroke="none" stroke-width="1" fill="none" fill-rule="evenodd">
        <g id="pdfIcon" fill="#FFFFFF" fill-rule="nonzero">
            <path d="M62.104,63.133 C60.934,63.478 59.217,63.517 57.375,63.25 C55.399,62.963 53.383,62.359 51.402,61.469 C54.935,60.955 57.676,61.113 60.02,61.944 C60.576,62.141 61.488,62.667 62.104,63.133 Z M42.392,59.892 C42.248,59.931 42.107,59.968 41.966,60.007 C41.015,60.266 40.09,60.518 39.199,60.743 L37.997,61.048 C35.579,61.66 33.107,62.285 30.666,63.029 C31.594,60.791 32.456,58.529 33.3,56.317 C33.925,54.68 34.563,53.007 35.223,51.356 C35.558,51.909 35.907,52.462 36.271,53.017 C37.927,55.54 40.009,57.873 42.392,59.892 Z M36.242,34.659 C36.399,37.42 35.803,40.076 34.929,42.624 C33.853,39.473 33.351,35.994 34.697,33.185 C35.042,32.465 35.325,32.08 35.508,31.879 C35.791,32.317 36.164,33.295 36.242,34.659 Z M23.62,69.635 C23.015,70.717 22.398,71.73 21.765,72.686 C20.238,74.987 17.741,77.451 16.458,77.451 C16.332,77.451 16.179,77.431 15.956,77.195 C15.812,77.044 15.789,76.936 15.796,76.789 C15.839,75.943 16.96,74.436 18.584,73.039 C20.058,71.771 21.724,70.645 23.62,69.635 Z M66.19,63.252 C65.994,60.434 61.25,58.626 61.203,58.609 C59.369,57.959 57.377,57.643 55.113,57.643 C52.689,57.643 50.076,57.994 46.72,58.778 C43.734,56.661 41.154,54.011 39.227,51.077 C38.376,49.781 37.611,48.487 36.944,47.223 C38.572,43.33 40.038,39.144 39.772,34.456 C39.557,30.697 37.862,28.172 35.557,28.172 C33.976,28.172 32.614,29.343 31.507,31.656 C29.532,35.778 30.051,41.052 33.049,47.345 C31.969,49.881 30.966,52.51 29.995,55.056 C28.787,58.221 27.542,61.486 26.139,64.592 C22.204,66.149 18.972,68.037 16.278,70.355 C14.513,71.871 12.386,74.188 12.264,76.607 C12.205,77.746 12.595,78.791 13.389,79.628 C14.232,80.517 15.292,80.985 16.457,80.986 C20.305,80.986 24.008,75.699 24.71,74.639 C26.124,72.508 27.447,70.131 28.744,67.389 C32.01,66.209 35.491,65.328 38.864,64.476 L40.072,64.169 C40.98,63.938 41.924,63.683 42.892,63.418 C43.917,63.141 44.971,62.854 46.042,62.581 C49.506,64.784 53.231,66.221 56.864,66.748 C59.924,67.193 62.642,66.935 64.481,65.976 C66.137,65.114 66.229,63.784 66.19,63.252 Z M73.642,87.484 C73.642,92.645 69.093,92.963 68.175,92.974 L9.488,92.974 C4.346,92.974 4.036,88.394 4.026,87.484 L4.026,9.517 C4.026,4.351 8.583,4.038 9.488,4.027 L49.133,4.027 L49.154,4.048 L49.154,19.519 C49.154,22.624 51.031,28.502 58.14,28.502 L73.51,28.502 L73.642,28.634 L73.642,87.484 Z M69.998,24.975 L58.141,24.975 C53,24.975 52.689,20.42 52.682,19.519 L52.682,7.588 L69.998,24.975 Z M77.168,87.484 L77.168,27.178 L52.682,2.59 L52.682,2.476 L52.565,2.476 L50.599,0.5 L9.488,0.5 C6.379,0.5 0.5,2.385 0.5,9.517 L0.5,87.485 C0.5,90.603 2.379,96.501 9.488,96.501 L68.181,96.501 C71.289,96.5 77.168,94.616 77.168,87.484 Z" id="Shape"></path>
        </g>
    </g>
</svg>